<svg width="103" height="536" viewBox="0 0 103 536" fill="none" xmlns="http://www.w3.org/2000/svg">
<path d="M63.8519 193.795C63.8652 189.755 63.1164 185.752 61.649 182.019C60.1817 178.286 58.0249 174.897 55.3039 172.048L26.1131 145.568C25.4824 144.792 25.1369 143.804 25.1393 142.783L25.1393 1.13763e-06L0.000146245 0L0.000140208 142.808C-0.0117887 146.848 0.737586 150.85 2.20487 154.583C3.67216 158.316 5.82821 161.705 8.54817 164.555L37.7389 191.01C38.3696 191.786 38.7152 192.774 38.7128 193.795L38.7127 535.379H63.8519L63.8519 193.795Z" fill="white" fill-opacity="0.1"/>
<path d="M102.579 92.0113C102.588 87.9707 101.837 83.9681 100.367 80.2354C98.898 76.5026 96.7401 73.1137 94.0185 70.2648L64.8398 43.8095C64.2009 43.038 63.8505 42.0482 63.8539 41.0247V1.23555e-06L38.7148 9.79235e-08V41.0247C38.7051 45.0654 39.4566 49.0679 40.926 52.8007C42.3953 56.5335 44.5532 59.9224 47.2748 62.7712L76.4656 89.2266C77.0963 90.0022 77.4418 90.9903 77.4394 92.0113L77.4394 533.184H102.579L102.579 92.0113Z" fill="white" fill-opacity="0.1"/>
<path d="M39.0567 135.827L51.6203 147.194L64.1958 157.409L64.1958 98.6126L51.6203 87.233L39.0567 75.1445L39.0567 135.827Z" fill="white" fill-opacity="0.1"/>
</svg>
