<svg width="103" height="543" viewBox="0 0 103 543" fill="none" xmlns="http://www.w3.org/2000/svg">
<path d="M102.578 194.062C102.588 190.016 101.836 186.007 100.367 182.269C98.8981 178.531 96.7403 175.136 94.0188 172.283L64.8365 145.856C64.2002 145.08 63.8506 144.088 63.8517 143.062L63.8517 94.5591C63.8506 93.5334 64.2002 92.5416 64.8365 91.7656L94.0188 65.289C96.7403 62.4355 98.8981 59.0414 100.367 55.303C101.836 51.5645 102.588 47.5561 102.578 43.5095V4.76106e-06L77.4404 3.59433e-06V43.5343L77.3231 44.5108C77.1775 45.1679 76.8839 45.7784 76.4672 46.2907L51.3182 69.1332L26.1105 46.2907C25.4783 45.5179 25.1327 44.53 25.1373 43.5095L25.1373 1.16673e-06L2.21765e-05 0L2.0337e-05 44.7332C0.27485 52.4796 3.32986 59.8268 8.54718 65.289L37.7412 91.7656C38.3687 92.5461 38.7135 93.5359 38.7143 94.5591V140.751C38.7135 141.774 38.3687 142.764 37.7412 143.544L8.54717 170.021C3.31799 175.495 0.261908 182.862 1.43377e-05 190.626L0 539.297H25.1373L25.1373 191.8C25.132 190.776 25.4775 189.784 26.1105 189.007L50.0402 167.302L76.4555 191.257C77.0885 192.034 77.434 193.026 77.4286 194.05L77.4286 539.297H102.578L102.578 194.062Z" fill="white" fill-opacity="0.1"/>
<path d="M51.2943 50.6787L63.8747 39.2451L63.8747 4.48381e-06L38.7256 3.31653e-06V39.2451L51.2943 50.6787Z" fill="white" fill-opacity="0.1"/>
<path d="M51.2904 184.629L38.7217 196.05L38.7217 542.998H63.8708L63.8708 196.05L51.2904 184.629Z" fill="white" fill-opacity="0.1"/>
</svg>
