<svg width="65" height="547" viewBox="0 0 65 547" fill="none" xmlns="http://www.w3.org/2000/svg">
<path d="M64.2073 193.305L64.2073 546.999H38.6211L38.6211 216.394L64.2073 193.305Z" fill="white" fill-opacity="0.1"/>
<path d="M38.6172 2.14851e-06L64.2035 3.24908e-06V45.3689L38.6172 22.2795V2.14851e-06Z" fill="white" fill-opacity="0.1"/>
<path d="M0.000270593 216.688L0.000270804 211.932C-0.0134903 207.827 0.748425 203.759 2.24186 199.966C3.73529 196.172 5.93053 192.728 8.70034 189.832L38.4103 162.976C39.057 162.191 39.4094 161.186 39.4014 160.148L39.4014 77.5347C39.4094 76.4967 39.057 75.4912 38.4103 74.7064L8.70034 47.8373C5.9276 44.9387 3.73066 41.4901 2.23714 37.6919C0.743616 33.8937 -0.0167263 29.8216 0.000279068 25.7121L0.000280209 0L25.5865 1.10043e-06V25.7892L25.6967 26.6891C25.8385 27.3854 26.1411 28.0344 26.5777 28.579L39.4014 40.1494L56.2876 55.4224C61.0108 60.4234 64.9999 66.8514 64.9999 73.6008L64.9999 160.148C65.0098 164.251 64.2448 168.317 62.7494 172.108C61.2539 175.899 59.0576 179.341 56.2876 182.234L26.5777 209.065C26.1035 209.648 25.7866 210.354 25.66 211.109L25.6599 546.249H0.000254279L0.000270595 216.663L0.000270593 216.688Z" fill="white" fill-opacity="0.1"/>
</svg>
