<svg width="104" height="548" viewBox="0 0 104 548" fill="none" xmlns="http://www.w3.org/2000/svg">
<path d="M104.002 186.747C104.012 182.693 103.25 178.678 101.761 174.933C100.271 171.188 98.083 167.788 95.3237 164.93L66.5447 140.054C65.9811 139.568 65.5272 138.959 65.2154 138.27C64.9035 137.581 64.7415 136.828 64.7407 136.066L64.7407 94.567C64.7528 90.5141 63.993 86.4991 62.5054 82.7543C61.0177 79.0094 58.8318 75.6093 56.0741 72.7506L26.4785 46.2231C25.841 45.4388 25.4911 44.4444 25.4911 43.4167L25.4911 1.15696e-06L0.00327032 0L0.00326849 43.4167C-0.0104401 47.4717 0.748549 51.4892 2.23623 55.2363C3.72392 58.9834 5.91072 62.3856 8.66987 65.2457L38.2655 91.7732C38.9078 92.5496 39.2586 93.542 39.2529 94.567V135.609C39.2382 139.669 39.9978 143.692 41.4877 147.443C42.9775 151.195 45.1679 154.601 47.9316 157.463L77.5151 183.991C78.1609 184.766 78.5159 185.758 78.5146 186.785L78.5146 548H104.002L104.002 186.747Z" fill="white" fill-opacity="0.08"/>
<path d="M38.1326 198.058C38.7747 198.833 39.1245 199.825 39.1166 200.85L39.1166 545H64.518L64.5181 200.85C64.5301 196.8 63.7729 192.788 62.2903 189.047C60.8077 185.305 58.6292 181.908 55.8808 179.051L26.3856 152.545C25.7502 151.762 25.4016 150.768 25.4016 149.741L25.4016 94.7375L0.000144959 72L0.00014167 150.147C-0.0119117 154.197 0.745286 158.209 2.22788 161.95C3.71048 165.692 5.88901 169.09 8.63736 171.946L38.1326 198.058Z" fill="white" fill-opacity="0.08"/>
<path d="M39.4844 28.7922C39.4844 36.2711 43.1281 43.099 48.1321 48.4082L77.6098 75.0691C78.2533 75.8482 78.607 76.8454 78.6058 77.8769L78.6058 135.066L104.003 158V77.8514C104.009 73.7817 103.248 69.7509 101.764 65.992C100.28 62.233 98.1013 58.8203 95.3548 55.9509L65.8771 29.3538C65.2365 28.573 64.8831 27.5769 64.8811 26.546V2.94499e-06L39.4844 1.79216e-06V28.7922Z" fill="white" fill-opacity="0.08"/>
</svg>
