<svg width="190" height="36" viewBox="0 0 190 36" fill="none" xmlns="http://www.w3.org/2000/svg">
<g id="Logo" clip-path="url(#clip0_1390_5024)">
<g id="Group 23">
<g id="Vector">
<path d="M181.988 11.3242H180.855L175.431 22.5734H167.494L162.108 11.3739H160.967V27.9537H154.299V4.28203H165.923L171.212 15.4843H172.58L178.079 4.28203H189V27.9675H181.988V11.3242Z" fill="white"/>
<path d="M91 4.31728H98.0172V22.0979H110.054V4.31728H117.146V22.0979H120.501L120.504 32H113.658V28.0386H91V4.31728Z" fill="white"/>
<path d="M122.44 19.2977H129.62C130.078 23.1211 135.336 22.3178 138.125 22.3343C140.383 22.2708 142.893 21.2301 142.965 18.6021H131.837V12.9595H142.918C142.505 10.7511 140.181 10.0113 138.231 9.90361C135.771 9.9395 130.573 9.23004 129.643 12.1976H122.39C122.6 4.37977 131.845 3.8663 137.832 4.02089C142.982 4.07334 149.171 6.29558 150.04 12.0265C150.495 14.4751 150.348 16.9485 150.182 19.3944C149.963 23.1266 146.94 26.2598 143.406 27.2785C142.11 27.6711 140.781 27.9446 139.436 28.0956C132.881 28.725 122.24 28.0956 122.44 19.306" fill="white"/>
</g>
<path id="Vector_2" d="M52.7842 -0.230358L53.003 -0.450592C53.0162 -0.466009 53.0315 -0.47702 53.0446 -0.490234H-0.00195312V8.27728H45.5222L52.7842 -0.230358Z" fill="white"/>
<path id="Vector_3" d="M56.6333 21.5213L56.4144 21.7415L56.375 21.7812H77.4343V13.0137H63.9084L56.6333 21.5213Z" fill="white"/>
<path id="Vector_4" d="M20.3679 13.0137H-0.00195312V21.79H11.2806L20.3679 13.0137Z" fill="white"/>
<path id="Vector_5" d="M21.8457 35.3095H77.4202V26.5332H30.933L21.8457 35.3095Z" fill="white"/>
<path id="Vector_6" d="M67.6868 -0.499962H63.1081C61.7768 -0.503638 60.458 -0.241588 59.228 0.271022C57.998 0.783632 56.8813 1.53662 55.9424 2.48641L50.9939 8.27636L47.2315 12.681C46.9767 12.9023 46.6511 13.0236 46.3145 13.0224H30.4204C29.0977 13.0183 27.7872 13.2769 26.564 13.7833C25.3408 14.2897 24.2289 15.034 23.292 15.9735L17.2644 21.7921L12.8542 26.0514L12.7886 26.1153C12.5234 26.3809 12.1647 26.5305 11.7906 26.5316H-0.00195312V35.3079H11.7906C13.1135 35.3115 14.4242 35.0528 15.6478 34.5464C16.8713 34.04 17.9836 33.296 18.9212 32.3567L24.9488 26.5316L29.3611 22.27L29.4246 22.2084C29.5554 22.0761 29.7109 21.9711 29.8822 21.8997C30.0535 21.8283 30.2372 21.7917 30.4226 21.7921H46.3101C47.6414 21.7958 48.9602 21.5338 50.1902 21.0211C51.4202 20.5085 52.5369 19.7555 53.4758 18.8058L58.4353 13.0158L62.1954 8.61112C62.4513 8.3902 62.7775 8.26907 63.1147 8.26976H77.4285V-0.499962H67.6868Z" fill="white"/>
</g>
</g>
<defs>
<clipPath id="clip0_1390_5024">
<rect width="190" height="36" fill="white"/>
</clipPath>
</defs>
</svg>
